<svg xmlns="http://www.w3.org/2000/svg" version="1.1" viewBox="0.00 0.00 379.00 102.00">
<g stroke-width="2.00" fill="none" stroke-linecap="butt">
<path stroke="#9ab2d2" vector-effect="non-scaling-stroke" d="   M 51.80 90.57   A 0.32 0.32 0.0 0 0 52.10 91.00   L 64.27 91.00   A 0.32 0.32 0.0 0 0 64.57 90.79   L 92.42 10.93   A 0.32 0.32 0.0 0 0 92.12 10.50   L 80.10 10.50   A 0.32 0.32 0.0 0 0 79.79 10.71   L 51.80 90.57"/>
<path stroke="#999999" vector-effect="non-scaling-stroke" d="   M 176.66 31.97   L 176.66 12.25   Q 176.66 11.58 176.00 11.68   L 164.32 13.55   A 0.25 0.25 0.0 0 0 164.10 13.80   L 164.11 75.56   A 0.44 0.44 0.0 0 0 164.55 76.00   L 176.21 76.00   A 0.46 0.46 0.0 0 0 176.67 75.54   L 176.67 43.49   Q 176.67 42.97 177.16 42.81   C 186.37 39.88 189.80 43.90 189.76 52.75   Q 189.71 64.10 189.76 75.49   Q 189.77 76.00 190.27 76.00   L 201.73 76.00   Q 202.23 76.00 202.24 75.49   Q 202.30 63.49 202.27 51.50   C 202.25 43.01 200.22 35.10 191.05 32.40   C 186.07 30.93 182.19 31.52 177.15 32.38   Q 176.66 32.47 176.66 31.97"/>
<path stroke="#999999" vector-effect="non-scaling-stroke" d="   M 226.28 42.32   L 240.22 42.31   Q 240.75 42.31 240.75 41.78   L 240.76 32.51   Q 240.76 32.00 240.26 32.00   L 226.00 32.00   A 0.26 0.26 0.0 0 1 225.74 31.74   L 225.74 19.66   Q 225.74 19.08 225.16 19.17   L 213.80 20.98   Q 213.31 21.06 213.30 21.56   Q 213.00 51.84 213.35 61.46   C 213.96 77.87 230.20 79.49 242.29 74.85   A 0.32 0.32 0.0 0 0 242.49 74.50   L 240.82 65.29   Q 240.78 65.06 240.55 65.14   C 236.78 66.47 229.48 67.96 226.95 63.86   Q 225.99 62.31 225.85 58.47   Q 225.55 50.63 225.81 42.76   Q 225.83 42.32 226.28 42.32"/>
<path stroke="#999999" vector-effect="non-scaling-stroke" d="   M 23.95 51.36   A 0.30 0.30 0.0 0 1 23.95 50.80   L 49.34 41.02   A 0.30 0.30 0.0 0 0 49.52 40.65   L 46.41 31.14   A 0.30 0.30 0.0 0 0 46.01 30.96   L 10.40 45.83   A 0.30 0.30 0.0 0 0 10.22 46.11   L 10.22 56.06   A 0.30 0.30 0.0 0 0 10.40 56.34   L 46.00 71.20   A 0.30 0.30 0.0 0 0 46.40 71.02   L 49.51 61.52   A 0.30 0.30 0.0 0 0 49.33 61.15   L 23.95 51.36"/>
<path stroke="#999999" vector-effect="non-scaling-stroke" d="   M 94.69 40.63   A 0.32 0.32 0.0 0 0 94.88 41.03   L 120.21 50.78   A 0.32 0.32 0.0 0 1 120.21 51.38   L 94.88 61.14   A 0.32 0.32 0.0 0 0 94.69 61.54   L 97.77 71.01   A 0.32 0.32 0.0 0 0 98.20 71.21   L 133.80 56.34   A 0.32 0.32 0.0 0 0 134.00 56.05   L 134.01 46.13   A 0.32 0.32 0.0 0 0 133.81 45.84   L 98.21 30.96   A 0.32 0.32 0.0 0 0 97.78 31.16   L 94.69 40.63"/>
<path stroke="#999999" vector-effect="non-scaling-stroke" d="   M 263.78 42.32   C 273.00 41.33 275.10 43.71 275.12 52.75   Q 275.15 64.07 275.18 75.44   A 0.57 0.57 0.0 0 0 275.75 76.00   L 287.26 76.00   A 0.44 0.44 0.0 0 0 287.70 75.56   Q 287.72 63.48 287.69 51.50   Q 287.68 47.87 286.93 44.29   Q 286.83 43.86 287.22 43.63   C 291.62 40.97 297.87 41.29 298.92 47.16   Q 299.57 50.80 299.53 54.51   Q 299.43 64.95 299.46 75.45   Q 299.46 76.00 300.00 76.00   L 311.51 76.00   A 0.45 0.45 0.0 0 0 311.96 75.55   Q 312.01 63.36 311.99 51.25   C 311.97 41.71 309.60 33.76 299.18 31.84   Q 290.18 30.18 282.14 35.22   Q 281.70 35.50 281.29 35.19   C 273.33 29.16 260.41 31.49 251.18 33.86   Q 250.86 33.94 250.86 34.26   L 250.86 75.43   Q 250.86 76.00 251.43 76.00   L 262.83 76.00   Q 263.41 76.00 263.41 75.42   L 263.41 42.74   A 0.42 0.41 87.0 0 1 263.78 42.32"/>
<path stroke="#9ab2d2" vector-effect="non-scaling-stroke" d="   M 340.63 61.40   Q 345.66 68.06 349.43 75.50   A 0.91 0.90 -13.3 0 0 350.24 76.00   L 362.74 76.00   A 0.33 0.33 0.0 0 0 363.02 75.50   Q 356.31 64.03 347.84 53.79   Q 347.45 53.31 347.81 52.81   L 362.23 32.71   A 0.33 0.33 0.0 0 0 361.96 32.19   L 350.19 32.19   A 1.03 1.01 16.5 0 0 349.34 32.64   L 341.24 45.04   A 0.36 0.36 0.0 0 1 340.64 45.04   L 332.52 32.64   A 0.98 0.98 0.0 0 0 331.70 32.20   L 319.31 32.17   A 0.34 0.34 0.0 0 0 319.03 32.71   L 333.45 53.08   A 0.59 0.58 47.4 0 1 333.43 53.79   Q 325.15 63.96 318.61 75.33   A 0.45 0.44 15.0 0 0 319.00 75.99   L 330.49 76.00   Q 330.86 76.00 331.05 75.69   L 339.96 61.43   A 0.41 0.41 0.0 0 1 340.63 61.40"/>
</g>
<path fill="#ffffff" d="   M 0.00 0.00   L 379.00 0.00   L 379.00 102.00   L 0.00 102.00   L 0.00 0.00   Z   M 51.80 90.57   A 0.32 0.32 0.0 0 0 52.10 91.00   L 64.27 91.00   A 0.32 0.32 0.0 0 0 64.57 90.79   L 92.42 10.93   A 0.32 0.32 0.0 0 0 92.12 10.50   L 80.10 10.50   A 0.32 0.32 0.0 0 0 79.79 10.71   L 51.80 90.57   Z   M 176.66 31.97   L 176.66 12.25   Q 176.66 11.58 176.00 11.68   L 164.32 13.55   A 0.25 0.25 0.0 0 0 164.10 13.80   L 164.11 75.56   A 0.44 0.44 0.0 0 0 164.55 76.00   L 176.21 76.00   A 0.46 0.46 0.0 0 0 176.67 75.54   L 176.67 43.49   Q 176.67 42.97 177.16 42.81   C 186.37 39.88 189.80 43.90 189.76 52.75   Q 189.71 64.10 189.76 75.49   Q 189.77 76.00 190.27 76.00   L 201.73 76.00   Q 202.23 76.00 202.24 75.49   Q 202.30 63.49 202.27 51.50   C 202.25 43.01 200.22 35.10 191.05 32.40   C 186.07 30.93 182.19 31.52 177.15 32.38   Q 176.66 32.47 176.66 31.97   Z   M 226.28 42.32   L 240.22 42.31   Q 240.75 42.31 240.75 41.78   L 240.76 32.51   Q 240.76 32.00 240.26 32.00   L 226.00 32.00   A 0.26 0.26 0.0 0 1 225.74 31.74   L 225.74 19.66   Q 225.74 19.08 225.16 19.17   L 213.80 20.98   Q 213.31 21.06 213.30 21.56   Q 213.00 51.84 213.35 61.46   C 213.96 77.87 230.20 79.49 242.29 74.85   A 0.32 0.32 0.0 0 0 242.49 74.50   L 240.82 65.29   Q 240.78 65.06 240.55 65.14   C 236.78 66.47 229.48 67.96 226.95 63.86   Q 225.99 62.31 225.85 58.47   Q 225.55 50.63 225.81 42.76   Q 225.83 42.32 226.28 42.32   Z   M 23.95 51.36   A 0.30 0.30 0.0 0 1 23.95 50.80   L 49.34 41.02   A 0.30 0.30 0.0 0 0 49.52 40.65   L 46.41 31.14   A 0.30 0.30 0.0 0 0 46.01 30.96   L 10.40 45.83   A 0.30 0.30 0.0 0 0 10.22 46.11   L 10.22 56.06   A 0.30 0.30 0.0 0 0 10.40 56.34   L 46.00 71.20   A 0.30 0.30 0.0 0 0 46.40 71.02   L 49.51 61.52   A 0.30 0.30 0.0 0 0 49.33 61.15   L 23.95 51.36   Z   M 94.69 40.63   A 0.32 0.32 0.0 0 0 94.88 41.03   L 120.21 50.78   A 0.32 0.32 0.0 0 1 120.21 51.38   L 94.88 61.14   A 0.32 0.32 0.0 0 0 94.69 61.54   L 97.77 71.01   A 0.32 0.32 0.0 0 0 98.20 71.21   L 133.80 56.34   A 0.32 0.32 0.0 0 0 134.00 56.05   L 134.01 46.13   A 0.32 0.32 0.0 0 0 133.81 45.84   L 98.21 30.96   A 0.32 0.32 0.0 0 0 97.78 31.16   L 94.69 40.63   Z   M 263.78 42.32   C 273.00 41.33 275.10 43.71 275.12 52.75   Q 275.15 64.07 275.18 75.44   A 0.57 0.57 0.0 0 0 275.75 76.00   L 287.26 76.00   A 0.44 0.44 0.0 0 0 287.70 75.56   Q 287.72 63.48 287.69 51.50   Q 287.68 47.87 286.93 44.29   Q 286.83 43.86 287.22 43.63   C 291.62 40.97 297.87 41.29 298.92 47.16   Q 299.57 50.80 299.53 54.51   Q 299.43 64.95 299.46 75.45   Q 299.46 76.00 300.00 76.00   L 311.51 76.00   A 0.45 0.45 0.0 0 0 311.96 75.55   Q 312.01 63.36 311.99 51.25   C 311.97 41.71 309.60 33.76 299.18 31.84   Q 290.18 30.18 282.14 35.22   Q 281.70 35.50 281.29 35.19   C 273.33 29.16 260.41 31.49 251.18 33.86   Q 250.86 33.94 250.86 34.26   L 250.86 75.43   Q 250.86 76.00 251.43 76.00   L 262.83 76.00   Q 263.41 76.00 263.41 75.42   L 263.41 42.74   A 0.42 0.41 87.0 0 1 263.78 42.32   Z   M 340.63 61.40   Q 345.66 68.06 349.43 75.50   A 0.91 0.90 -13.3 0 0 350.24 76.00   L 362.74 76.00   A 0.33 0.33 0.0 0 0 363.02 75.50   Q 356.31 64.03 347.84 53.79   Q 347.45 53.31 347.81 52.81   L 362.23 32.71   A 0.33 0.33 0.0 0 0 361.96 32.19   L 350.19 32.19   A 1.03 1.01 16.5 0 0 349.34 32.64   L 341.24 45.04   A 0.36 0.36 0.0 0 1 340.64 45.04   L 332.52 32.64   A 0.98 0.98 0.0 0 0 331.70 32.20   L 319.31 32.17   A 0.34 0.34 0.0 0 0 319.03 32.71   L 333.45 53.08   A 0.59 0.58 47.4 0 1 333.43 53.79   Q 325.15 63.96 318.61 75.33   A 0.45 0.44 15.0 0 0 319.00 75.99   L 330.49 76.00   Q 330.86 76.00 331.05 75.69   L 339.96 61.43   A 0.41 0.41 0.0 0 1 340.63 61.40   Z"/>
<path fill="#3465a4" d="   M 51.80 90.57   L 79.79 10.71   A 0.32 0.32 0.0 0 1 80.10 10.50   L 92.12 10.50   A 0.32 0.32 0.0 0 1 92.42 10.93   L 64.57 90.79   A 0.32 0.32 0.0 0 1 64.27 91.00   L 52.10 91.00   A 0.32 0.32 0.0 0 1 51.80 90.57   Z"/>
<path fill="#333333" d="   M 177.15 32.38   C 182.19 31.52 186.07 30.93 191.05 32.40   C 200.22 35.10 202.25 43.01 202.27 51.50   Q 202.30 63.49 202.24 75.49   Q 202.23 76.00 201.73 76.00   L 190.27 76.00   Q 189.77 76.00 189.76 75.49   Q 189.71 64.10 189.76 52.75   C 189.80 43.90 186.37 39.88 177.16 42.81   Q 176.67 42.97 176.67 43.49   L 176.67 75.54   A 0.46 0.46 0.0 0 1 176.21 76.00   L 164.55 76.00   A 0.44 0.44 0.0 0 1 164.11 75.56   L 164.10 13.80   A 0.25 0.25 0.0 0 1 164.32 13.55   L 176.00 11.68   Q 176.66 11.58 176.66 12.25   L 176.66 31.97   Q 176.66 32.47 177.15 32.38   Z"/>
<path fill="#333333" d="   M 225.81 42.76   Q 225.55 50.63 225.85 58.47   Q 225.99 62.31 226.95 63.86   C 229.48 67.96 236.78 66.47 240.55 65.14   Q 240.78 65.06 240.82 65.29   L 242.49 74.50   A 0.32 0.32 0.0 0 1 242.29 74.85   C 230.20 79.49 213.96 77.87 213.35 61.46   Q 213.00 51.84 213.30 21.56   Q 213.31 21.06 213.80 20.98   L 225.16 19.17   Q 225.74 19.08 225.74 19.66   L 225.74 31.74   A 0.26 0.26 0.0 0 0 226.00 32.00   L 240.26 32.00   Q 240.76 32.00 240.76 32.51   L 240.75 41.78   Q 240.75 42.31 240.22 42.31   L 226.28 42.32   Q 225.83 42.32 225.81 42.76   Z"/>
<path fill="#333333" d="   M 23.95 51.36   L 49.33 61.15   A 0.30 0.30 0.0 0 1 49.51 61.52   L 46.40 71.02   A 0.30 0.30 0.0 0 1 46.00 71.20   L 10.40 56.34   A 0.30 0.30 0.0 0 1 10.22 56.06   L 10.22 46.11   A 0.30 0.30 0.0 0 1 10.40 45.83   L 46.01 30.96   A 0.30 0.30 0.0 0 1 46.41 31.14   L 49.52 40.65   A 0.30 0.30 0.0 0 1 49.34 41.02   L 23.95 50.80   A 0.30 0.30 0.0 0 0 23.95 51.36   Z"/>
<path fill="#333333" d="   M 94.69 40.63   L 97.78 31.16   A 0.32 0.32 0.0 0 1 98.21 30.96   L 133.81 45.84   A 0.32 0.32 0.0 0 1 134.01 46.13   L 134.00 56.05   A 0.32 0.32 0.0 0 1 133.80 56.34   L 98.20 71.21   A 0.32 0.32 0.0 0 1 97.77 71.01   L 94.69 61.54   A 0.32 0.32 0.0 0 1 94.88 61.14   L 120.21 51.38   A 0.32 0.32 0.0 0 0 120.21 50.78   L 94.88 41.03   A 0.32 0.32 0.0 0 1 94.69 40.63   Z"/>
<path fill="#333333" d="   M 263.78 42.32   A 0.42 0.41 87.0 0 0 263.41 42.74   L 263.41 75.42   Q 263.41 76.00 262.83 76.00   L 251.43 76.00   Q 250.86 76.00 250.86 75.43   L 250.86 34.26   Q 250.86 33.94 251.18 33.86   C 260.41 31.49 273.33 29.16 281.29 35.19   Q 281.70 35.50 282.14 35.22   Q 290.18 30.18 299.18 31.84   C 309.60 33.76 311.97 41.71 311.99 51.25   Q 312.01 63.36 311.96 75.55   A 0.45 0.45 0.0 0 1 311.51 76.00   L 300.00 76.00   Q 299.46 76.00 299.46 75.45   Q 299.43 64.95 299.53 54.51   Q 299.57 50.80 298.92 47.16   C 297.87 41.29 291.62 40.97 287.22 43.63   Q 286.83 43.86 286.93 44.29   Q 287.68 47.87 287.69 51.50   Q 287.72 63.48 287.70 75.56   A 0.44 0.44 0.0 0 1 287.26 76.00   L 275.75 76.00   A 0.57 0.57 0.0 0 1 275.18 75.44   Q 275.15 64.07 275.12 52.75   C 275.10 43.71 273.00 41.33 263.78 42.32   Z"/>
<path fill="#3465a4" d="   M 340.63 61.40   A 0.41 0.41 0.0 0 0 339.96 61.43   L 331.05 75.69   Q 330.86 76.00 330.49 76.00   L 319.00 75.99   A 0.45 0.44 15.0 0 1 318.61 75.33   Q 325.15 63.96 333.43 53.79   A 0.59 0.58 47.4 0 0 333.45 53.08   L 319.03 32.71   A 0.34 0.34 0.0 0 1 319.31 32.17   L 331.70 32.20   A 0.98 0.98 0.0 0 1 332.52 32.64   L 340.64 45.04   A 0.36 0.36 0.0 0 0 341.24 45.04   L 349.34 32.64   A 1.03 1.01 16.5 0 1 350.19 32.19   L 361.96 32.19   A 0.33 0.33 0.0 0 1 362.23 32.71   L 347.81 52.81   Q 347.45 53.31 347.84 53.79   Q 356.31 64.03 363.02 75.50   A 0.33 0.33 0.0 0 1 362.74 76.00   L 350.24 76.00   A 0.91 0.90 -13.3 0 1 349.43 75.50   Q 345.66 68.06 340.63 61.40   Z"/>
</svg>