<?xml version="1.0" encoding="utf-8"?>
<!-- Generator: Adobe Illustrator 24.3.0, SVG Export Plug-In . SVG Version: 6.00 Build 0)  -->
<svg version="1.1" id="Layer_1" xmlns="http://www.w3.org/2000/svg" xmlns:xlink="http://www.w3.org/1999/xlink" x="0px" y="0px"
	 viewBox="0 0 636 300" style="enable-background:new 0 0 636 300;" xml:space="preserve">
<style type="text/css">
	.st0{fill:#625F5B;}
	.st1{fill:#84817D;}
	.st2{fill:#797672;}
	.st3{fill:#BDD8F9;}
	.st4{fill:#81B5F3;}
	.st5{fill:#60A2F0;}
	.st6{fill:#3085E9;}
	.st7{fill:#77E3FB;}
	.st8{fill:#E56B56;}
	.st9{fill:#CCCAC7;}
	.st10{fill:#56534F;}
	.st11{fill:#FFFFFF;}
	.st12{fill:#908D89;}
	.st13{fill:none;stroke:#F7B548;stroke-width:1.1872;stroke-miterlimit:10;}
	.st14{fill:#B3AFAB;}
	.st15{fill:#29C3E5;}
	.st16{fill:#179BB8;}
	.st17{fill:#F7B548;}
	.st18{fill:#D5D3D0;}
	.st19{fill:#BBB8B4;}
	.st20{fill:#666666;}
	.st21{fill:#E8A53F;}
	.st22{fill:#E6E4E3;}
	.st23{fill:#FCCF84;}
	.st24{fill:#9C9894;}
	.st25{fill:#F3F3F3;}
	.st26{fill:url(#SVGID_1_);}
	.st27{fill:#8A6FE8;}
	.st28{fill:url(#SVGID_2_);}
	.st29{fill:url(#SVGID_3_);}
	.st30{fill:#522CD5;}
	.st31{fill:url(#SVGID_4_);}
	.st32{fill:url(#SVGID_5_);}
	.st33{fill:url(#SVGID_6_);}
	.st34{fill:url(#SVGID_7_);}
	.st35{fill:url(#SVGID_8_);}
	.st36{fill:url(#SVGID_9_);}
	.st37{fill:#D8CFF7;}
	.st38{fill:#512BD4;}
	.st39{fill:url(#SVGID_10_);}
	.st40{fill:#A08BE8;}
	.st41{fill:#8065E0;}
	.st42{fill:url(#SVGID_11_);}
	.st43{fill:url(#SVGID_12_);}
	.st44{fill:#8C9091;}
	.st45{fill:#1FB1D1;}
	.st46{fill:#ED9583;}
	.st47{fill:#1595B2;}
	.st48{fill:#E86E58;}
	.st49{fill:#F8BB55;}
	.st50{fill:#E29E3B;}
	.st51{fill:#F8B84F;}
	.st52{fill:#28C2D1;}
	.st53{fill:#CF5746;}
	.st54{fill:#FFE5B9;}
	.st55{fill:#0F849E;}
	.st56{fill:#BBF1FD;}
	.st57{fill:#22B5D6;}
	.st58{fill:#5C2D91;}
	.st59{fill:#C5D43B;}
	.st60{fill:#E1EA95;}
	.st61{fill:#D8E8FB;}
	.st62{fill:#8EE8FC;}
	.st63{fill:#DDDBDA;}
	.st64{fill:#A3C9F6;}
	.st65{fill:#DF9B39;}
	.st66{fill:#2980E7;}
	.st67{fill:url(#SVGID_13_);}
	.st68{fill:url(#SVGID_14_);}
	.st69{fill:#4995EE;}
	.st70{fill:#0B7891;}
	.st71{fill:#60DEFA;}
	.st72{fill:#1DACCC;}
	.st73{fill:#138FAB;}
	.st74{fill:#27BEE0;}
	.st75{fill:#3E8EED;}
	.st76{fill:#FDD696;}
	.st77{fill:#CAE0FA;}
	.st78{fill:#1C77E2;}
	.st79{fill:#98C2F5;}
	.st80{fill:#EEEDEC;}
	.st81{fill:#42403C;}
	.st82{fill:#605D5A;}
	.st83{fill:url(#SVGID_15_);}
	.st84{fill:#E1DFDD;}
	.st85{fill:url(#SVGID_16_);}
	.st86{fill:url(#SVGID_17_);}
	.st87{fill:url(#SVGID_18_);}
	.st88{fill:url(#SVGID_19_);}
	.st89{fill:url(#SVGID_20_);}
	.st90{fill:url(#SVGID_21_);}
	.st91{fill:url(#SVGID_22_);}
	.st92{fill:url(#SVGID_23_);}
	.st93{fill:url(#SVGID_24_);}
	.st94{fill:url(#SVGID_25_);}
	.st95{fill:url(#SVGID_26_);}
	.st96{fill:url(#SVGID_27_);}
	.st97{fill:url(#SVGID_28_);}
	.st98{fill:url(#SVGID_29_);}
	.st99{fill:none;}
</style>
<g>
	<g>
		<path class="st59" d="M284.5,156.1l-136.1,0c-3.5,0-6.3-3-6.3-6.6V35.3c0-3.7,2.8-6.4,6.3-6.2l136.1,8.6c3,0.2,5.5,3.1,5.5,6.5
			v105.7C290,153.3,287.5,156.1,284.5,156.1z"/>
		<polygon class="st60" points="290,98.6 142,94.1 142,115.8 290,118.8 		"/>
		<polygon class="st60" points="290,121.7 142,119 142,140.8 290,141.9 		"/>
		<polygon class="st11" points="142,69.4 142,91.1 290,95.9 290,75.7 		"/>
		<polygon class="st60" points="142,44.7 142,66.4 290,73 290,52.9 		"/>
		<g>
			<polygon class="st14" points="238.7,62.3 181.8,59.5 181.8,56.1 238.7,59 			"/>
			<path class="st14" d="M170.4,57.7c0,4.1-3.2,7.3-7.1,7.1c-3.9-0.2-7.1-3.7-7.1-7.8s3.2-7.3,7.1-7.1
				C167.2,50.1,170.4,53.6,170.4,57.7z"/>
		</g>
		<g>
			<polygon class="st59" points="266.1,86.4 181.8,83.2 181.8,79.9 266.1,83.1 			"/>
			<path class="st59" d="M170.4,81.6c0,4.1-3.2,7.3-7.1,7.2c-3.9-0.1-7.1-3.6-7.1-7.7s3.2-7.3,7.1-7.2
				C167.2,74.1,170.4,77.5,170.4,81.6z"/>
		</g>
		<g>
			<polygon class="st14" points="251.7,108.7 181.8,107 181.8,103.6 251.7,105.5 			"/>
			<path class="st14" d="M170.4,105.5c0,4.1-3.2,7.3-7.1,7.3c-3.9-0.1-7.1-3.5-7.1-7.6c0-4.1,3.2-7.4,7.1-7.3
				C167.2,98,170.4,101.4,170.4,105.5z"/>
		</g>
		<g>
			<polygon class="st14" points="238.7,131.5 181.8,130.8 181.8,127.4 238.7,128.2 			"/>
			<path class="st14" d="M170.4,129.4c0,4.1-3.2,7.4-7.1,7.3c-3.9,0-7.1-3.4-7.1-7.5c0-4.1,3.2-7.4,7.1-7.3
				C167.2,121.9,170.4,125.3,170.4,129.4z"/>
		</g>
	</g>
	<g>
		<path class="st14" d="M454.2,214.8l-190.8,6.6c-3.3,0.1-5.9-2.7-5.9-6.4V56c0-3.6,2.7-6.4,5.9-6.2l190.8,10.7
			c2.6,0.1,4.8,2.9,4.8,6.1v142.1C459,212,456.9,214.7,454.2,214.8z"/>
		<path class="st0" d="M456.6,214.7l-190.2,6.6c-3.3,0.1-5.9-2.7-5.9-6.4V56.2c0-3.6,2.7-6.4,5.9-6.2l190.2,10.7
			c2.6,0.1,4.8,2.9,4.8,6.1v141.9C461.3,211.9,459.2,214.6,456.6,214.7z"/>
		<path class="st61" d="M451.3,200.2l-178.6,4.7c-0.9,0-1.6-0.8-1.6-1.8v-141c0-1,0.7-1.8,1.6-1.7l178.6,9.1c0.7,0,1.3,0.8,1.3,1.7
			v127.4C452.6,199.4,452.1,200.1,451.3,200.2z"/>
		<path class="st24" d="M511.2,237.5c0-1.8,0-3,0-3.6c0-0.5-51.2-16.2-51.2-16.2l-197.4,2.5v2.5c0,0,0,2.2,2.2,3
			c2.1,0.8,58.2,21.3,58.2,21.3c2.9,1.1,5.9,1.5,8.9,1.4l178-9C510.9,239.3,511.2,238.6,511.2,237.5z"/>
		<path class="st9" d="M510.2,235.2l-178.3,8.6c-3,0.1-6.1-0.3-8.9-1.4l-60.4-22.3l197.5-6.7l50.5,19.2
			C511.6,233.1,511.3,235.2,510.2,235.2z"/>
	</g>
	<path class="st4" d="M452.6,81V70.7c0-0.8-0.6-1.5-1.2-1.6L272.3,60c-0.8,0-1.5,0.7-1.5,1.6V73L452.6,81z"/>
	<g>
		<g>
			<path class="st59" d="M516.4,188.4l-74.6,1.5c-2.7,0.1-4.9-2.6-4.9-5.8v-62.8c0-3.3,2.2-5.9,4.9-5.8l74.6,1.8
				c2.4,0.1,4.4,2.6,4.4,5.7v59.7C520.8,185.8,518.8,188.3,516.4,188.4z"/>
			<path class="st0" d="M520.8,130.9v-9.8c0-2.1-1.3-3.9-3-3.9l-77.6-1.8c-1.8,0-3.3,1.7-3.3,4v10.3L520.8,130.9z"/>
			<polygon class="st12" points="451.3,125.7 444.4,125.6 444.4,121.3 451.3,121.5 			"/>
			<polygon class="st12" points="462.3,125.9 455.6,125.8 455.6,121.5 462.3,121.7 			"/>
		</g>
		<g>
			<path class="st11" d="M470.9,170l-19.6-10.5V157l19.6-12v3.7l-15.9,9.3l15.9,8.2V170z"/>
			<path class="st11" d="M487.5,139.7L476.7,176l-3.3,0l10.9-36.4L487.5,139.7z"/>
			<path class="st11" d="M490,166.1l15.3-8.1l-15.3-9.2v-3.7l18.7,11.8v2.4L490,169.9V166.1z"/>
		</g>
	</g>
	<path class="st58" d="M403,122.2c-1.4,10.7-5.7,20.4-12.3,27.5c-6.6,7.1-15.1,11.1-24,11.2c-1.8,0.1-3.6,0-5.4-0.4
		c-3.8-0.8-7.2-3.1-9.8-6.7c-2.6-3.6-4.1-8.1-4.2-12.9c0-5.3,1.8-10.4,4.8-14.1c3-3.7,7.1-5.7,11.4-5.7c4.2,0,8.3,2.1,11.3,5.8
		c3,3.7,4.7,8.7,4.8,13.9c0.1,3.3-1.1,6.2-3.4,6.2c-2.5,0-3.7-2.3-3.7-5.3v-8.4c0-1.4-0.4-2.7-1.2-3.6c-0.8-1-1.8-1.5-2.9-1.6
		l-5.7-0.1c-1.7,0-3.3,0.4-4.8,1.4c-1.5,1-2.7,2.4-3.7,4.1c-0.9,1.7-1.5,3.7-1.6,5.8c-0.1,2.1,0.1,4.1,0.8,6
		c0.7,1.9,1.7,3.5,3.1,4.8c1.3,1.3,2.9,2.1,4.5,2.4c1.6,0.3,3.3,0.1,4.9-0.6c1.6-0.7,3-1.8,4.1-3.4l0.2-0.4l0.2,0.4
		c0.7,1.2,1.6,2.1,2.6,2.7c1,0.6,2.2,0.9,3.3,0.8c2-0.2,3.9-1.3,5.3-3.2c1.3-1.9,2-4.4,1.9-6.9c0-2.2-0.2-4.3-0.6-6.4
		c-1-6-3.8-11.3-7.8-14.9c-4-3.7-9-5.4-13.9-4.8c-5,0.6-9.6,3.4-13,8c-3.4,4.6-5.3,10.6-5.2,16.8c0.1,6.6,2.2,12.9,6,17.6
		c3.8,4.7,8.8,7.4,14.2,7.5c0,0,1.5,0.2,3.2,0.1c8.1-0.1,16-3.1,22.7-8.5c0.1-0.1,0.2,0.1,0.1,0.2c-3.3,4.4-7.3,7.9-11.8,10.2
		c-4.5,2.3-9.4,3.4-14.3,3.2c-3.2,0.1-6.4-0.6-9.5-2.1c-3-1.5-5.8-3.7-8.1-6.6c-2.3-2.8-4.1-6.3-5.4-10c-1.2-3.8-1.8-7.8-1.7-11.8
		c0-4.8,0.9-9.5,2.7-13.8c1.8-4.3,4.3-7.9,7.4-10.7c4.2-3.7,9.2-5.6,14.4-5.5l7.6,0.2c3,0.1,5.9-0.6,8.6-2c2.7-1.4,5.1-3.5,7.1-6.1
		c0-0.1,0.1-0.1,0.2-0.1c0.1,0,0.1,0,0.2,0c0.1,0,0.1,0.1,0.1,0.2c0,0.1,0,0.1,0,0.2c-0.3,4.2-1.4,8.2-3.3,11.7c0,0.1,0,0.1,0,0.2
		c0,0.1,0,0.1,0.1,0.2c0,0.1,0.1,0.1,0.1,0.1c0.1,0,0.1,0,0.2,0c3.5-0.9,6.7-2.8,9.4-5.5c2.7-2.7,4.8-6.2,6.2-10.2
		c0-0.1,0.1-0.1,0.1-0.2c0.1,0,0.1-0.1,0.2-0.1c0.1,0,0.1,0,0.2,0.1c0.1,0,0.1,0.1,0.1,0.2C403.2,106.5,404.1,114.5,403,122.2z
		 M362.7,133.2c-1.2,0-2.3,0.4-3.3,1.2c-1,0.8-1.7,1.9-2.2,3.3c-0.5,1.3-0.6,2.8-0.3,4.3c0.2,1.4,0.8,2.7,1.6,3.8
		c0.8,1,1.9,1.7,3.1,2c1.2,0.3,2.3,0.1,3.4-0.4c1.1-0.5,2-1.5,2.7-2.7c0.6-1.2,1-2.6,1-4.1v-6.8c0-0.1,0-0.3-0.1-0.4
		c-0.1-0.1-0.2-0.2-0.3-0.2L362.7,133.2z"/>
	<g>
		<path class="st47" d="M178,209l-103.4,2.8c-6.2,0.2-11.3-4.8-11.3-11v-56.2c0-6.2,5.1-11.3,11.3-11.2l103.4,1.1
			c5.6,0.1,10.1,4.9,10.1,10.7v52.8C188.1,204,183.6,208.9,178,209z"/>
		<polygon class="st62" points="166.5,181.6 93.5,182.5 93.5,174.7 166.5,174.1 		"/>
		<polygon class="st11" points="166.5,189 93.5,190.2 93.5,182.5 166.5,181.5 		"/>
		<path class="st63" d="M144.5,146.8l-68.1-0.3c-0.8,0-1.5-0.7-1.5-1.5s0.7-1.5,1.5-1.5l68.1,0.4c0.8,0,1.4,0.7,1.4,1.5
			S145.3,146.9,144.5,146.8z"/>
		<path class="st63" d="M172.5,155.8l-96.1,0c-0.8,0-1.5-0.7-1.5-1.5c0-0.9,0.7-1.5,1.5-1.5l96.1,0.1c0.8,0,1.4,0.7,1.4,1.5
			S173.2,155.8,172.5,155.8z"/>
		<path class="st63" d="M114.9,164.8L76.4,165c-0.8,0-1.5-0.7-1.5-1.5s0.7-1.5,1.5-1.5l38.6-0.1c0.8,0,1.5,0.7,1.5,1.5
			S115.8,164.8,114.9,164.8z"/>
	</g>
	<g>
		<path class="st17" d="M236.1,220.8c0,20.9-15.7,38.7-35.4,39.8c-20.1,1.1-36.7-15.6-36.7-37.3s16.6-39.5,36.7-39.8
			C220.4,183.1,236.1,199.9,236.1,220.8z"/>
		<path class="st64" d="M200.7,183.4c-20.1,0.3-36.7,18.1-36.7,39.8s16.6,38.4,36.7,37.3c19.7-1.1,35.4-18.9,35.4-39.8l-35.4,1.2
			V183.4z"/>
		<path class="st65" d="M200.7,222l27.8,22.7c4.8-6.7,7.6-15,7.6-23.9L200.7,222z"/>
		<path class="st22" d="M214,186c-4.1-1.7-8.6-2.7-13.4-2.6V222L214,186z"/>
	</g>
	<g>
		<path class="st3" d="M569.8,152.9l-49.2-0.1c-7.1,0-12.9-6.4-12.9-14.2V86.9c0-7.8,5.8-13.9,12.9-13.6l49.2,2.1
			c6.7,0.3,12.1,6.6,12.1,14.1v49.7C581.9,146.8,576.5,152.9,569.8,152.9z"/>
		<g>
			<polygon class="st66" points="563.8,110.5 569.2,110.6 569.2,141 563.8,140.9 			"/>
			<polygon class="st4" points="555.9,106.4 561.4,106.6 561.4,140.9 555.9,140.9 			"/>
			<polygon class="st66" points="547.9,123.6 553.5,123.7 553.5,140.9 547.9,140.8 			"/>
			<polygon class="st4" points="539.8,118 545.5,118.1 545.5,140.8 539.8,140.7 			"/>
			<polygon class="st66" points="531.7,126.7 537.4,126.8 537.4,140.7 531.7,140.7 			"/>
			<polygon class="st4" points="523.5,132.1 529.2,132.2 529.2,140.7 523.5,140.6 			"/>
		</g>
		<path class="st24" d="M546.7,96.2l-29-0.9c-0.6,0-1.1-0.6-1.1-1.3c0-0.7,0.5-1.2,1.1-1.2l29,1c0.6,0,1.1,0.6,1.1,1.2
			C547.8,95.7,547.3,96.2,546.7,96.2z"/>
		<path class="st24" d="M546.7,103.4l-29-0.8c-0.6,0-1.1-0.6-1.1-1.3c0-0.7,0.5-1.2,1.1-1.2l29,0.8c0.6,0,1.1,0.6,1.1,1.2
			C547.8,102.9,547.3,103.4,546.7,103.4z"/>
		<path class="st24" d="M546.7,110.6l-29-0.7c-0.6,0-1.1-0.6-1.1-1.3c0-0.7,0.5-1.2,1.1-1.2l29,0.7c0.6,0,1.1,0.6,1.1,1.2
			S547.3,110.6,546.7,110.6z"/>
		<path class="st4" d="M581.8,88.7c-0.4-7.1-5.6-13-12-13.3l-49.2-2.1c-6.8-0.3-12.4,5.3-12.8,12.7L581.8,88.7z"/>
	</g>
</g>
</svg>
