<?xml version="1.0" encoding="utf-8"?>
<!-- Generator: Adobe Illustrator 25.3.1, SVG Export Plug-In . SVG Version: 6.00 Build 0)  -->
<svg version="1.1" id="Layer_1" xmlns="http://www.w3.org/2000/svg" xmlns:xlink="http://www.w3.org/1999/xlink" x="0px" y="0px"
	 viewBox="0 0 636 300" style="enable-background:new 0 0 636 300;" xml:space="preserve">
<style type="text/css">
	.st0{fill:#625F5B;}
	.st1{fill:#84817D;}
	.st2{fill:#797672;}
	.st3{fill:url(#SVGID_1_);}
	.st4{fill:#E6E4E3;}
	.st5{fill:#C8C6C4;}
	.st6{fill:#B3AFAB;}
	.st7{fill:#957EE6;}
	.st8{fill:none;stroke:#1DACCC;stroke-width:1.4561;stroke-miterlimit:10;}
	.st9{fill:none;stroke:#1DACCC;stroke-width:2.9123;stroke-miterlimit:10;}
	.st10{fill:#EA7B66;}
	.st11{fill:#F7B548;}
	.st12{fill:#3E8EED;}
	.st13{fill:#9780E6;}
	.st14{fill:#6FD0C3;}
	.st15{fill:#FFFFFF;}
	.st16{fill:#88DDE5;}
	.st17{fill:#B7EBF0;}
	.st18{fill:#28C2D1;}
	.st19{fill:#F7F6F6;}
	.st20{fill:none;stroke:#B2B2B2;stroke-width:1.2314;stroke-miterlimit:10;}
	.st21{fill:#8065E0;}
</style>
<g>
	<g>
		<path class="st0" d="M418.39,271.25l-22.22-0.13l-119.47-0.65l-0.05,2.64c-0.03,0.62,0.37,1.31,1.15,1.38l101.35,9.33
			c0.15,0.01,0.31,0,0.45-0.03l37.74-8.31c0.75-0.16,1.05-0.72,1.02-1.28l0.02,0L418.39,271.25z"/>
		<path class="st1" d="M379.19,280.89l-101.32-9.09c-1.35-0.12-1.62-2.07-0.33-2.4l31.73-7.98c0.13-0.03,0.27-0.04,0.4-0.03
			l107.25,8.38c1.71,0.13,2.09,2.33,0.46,2.69l-37.73,8.39C379.5,280.89,379.35,280.9,379.19,280.89z"/>
		<polygon class="st0" points="351.7,224.98 365.24,272.34 371.41,271.2 358.21,225.28 		"/>
		<polygon class="st2" points="365.34,272.35 321.14,268.65 309.05,223.06 352.08,225 		"/>
	</g>
	
		<radialGradient id="SVGID_1_" cx="-1030.4565" cy="158.8432" r="218.5006" gradientTransform="matrix(-0.6256 -0.0578 0.0144 0.6842 -455.8709 47.4252)" gradientUnits="userSpaceOnUse">
		<stop  offset="0.1159" style="stop-color:#FFFFFF"/>
		<stop  offset="1" style="stop-color:#B8D6F7"/>
	</radialGradient>
	<path class="st3" d="M273.7,75.03c0-0.1,0.03-0.21,0.03-0.31c1.38-21.98-13.78-38.52-33.21-36.99c-6.21,0.5-12.06,2.81-17.16,6.37
		c-3.89-20.44-19.49-33.92-38.45-31.86c-17.89,1.95-33.38,17.24-39.29,36.43c-2.69-1.83-5.86-2.77-9.31-2.5
		c-10.08,0.8-18.7,11.48-19.41,23.83c-0.05,1.01-0.03,2.01,0.02,2.99c-14.76,8.23-25.19,25.63-25.62,48.18
		c-0.01,0.76-0.01,1.52,0,2.27c93.18-5.26,163.45-9.03,204.79-10.07c0.85-2,2.86-7.7,2.99-10.03
		C300.14,87.07,288.59,74.4,273.7,75.03z"/>
	<path class="st4" d="M459.92,233.71l-244.73-11.73c-3.53-0.17-6.29-3.36-6.19-7.14l3.6-132.14c0.1-3.67,2.99-6.89,6.49-7.21
		l241.11-21.72c5.29-0.48,9.62,2.82,9.61,7.37l-0.08,164.5C469.72,230.36,465.31,233.97,459.92,233.71z"/>
	<path class="st5" d="M323.02,66.14L219.08,75.5c-3.49,0.31-6.39,3.54-6.49,7.21l-3.6,132.14c-0.1,3.77,2.66,6.97,6.19,7.14
		l105.3,5.05L323.02,66.14z"/>
	<path class="st1" d="M469.8,72.16l0.01-11.49c0-4.28-3.97-7.39-8.84-6.95l-242.4,21.83c-3.21,0.29-5.87,3.32-5.96,6.77l-0.25,9.26
		L469.8,72.16z"/>
	<path class="st6" d="M476.9,233.47L476.9,233.47l-0.05-188.82l6.2-0.59c3.44-0.33,6.25,1.75,6.26,4.65l0.29,187.59
		c0,3.02-2.85,5.31-6.37,5.13l-6.33-0.33L476.9,233.47z"/>
	<g>
		<g>
			<polygon class="st7" points="473.57,92.44 216.39,107.82 216.43,106.48 473.57,90.77 			"/>
		</g>
		<g>
			<polygon class="st7" points="473.57,111.8 215.98,123.43 216.01,122.08 473.57,110.14 			"/>
		</g>
		<g>
			<polygon class="st7" points="473.57,131.25 215.56,139.08 215.59,137.73 473.57,129.58 			"/>
		</g>
		<g>
			<polygon class="st7" points="473.57,150.78 215.14,154.79 215.17,153.44 473.57,149.09 			"/>
		</g>
		<g>
			<polygon class="st7" points="473.57,170.38 214.71,170.54 214.75,169.19 473.57,168.69 			"/>
		</g>
		<g>
			<polygon class="st7" points="473.56,190.06 214.29,186.35 214.33,184.99 473.56,188.37 			"/>
		</g>
		<g>
			<polygon class="st7" points="473.56,209.82 213.87,202.21 213.9,200.85 473.56,208.12 			"/>
		</g>
		<line class="st8" x1="213.46" y1="217.44" x2="473.56" y2="228.81"/>
	</g>
	<path class="st9" d="M179.66,253.12"/>
	<path class="st0" d="M210.58,74.33l-4.07,148.15c-0.07,2.37,1.66,4.39,3.87,4.51l267.85,14.17c3.49,0.18,6.33-2.1,6.32-5.11
		l-0.19-186.89c0-2.89-2.79-4.96-6.21-4.63L214.64,69.79C212.46,69.99,210.65,72.03,210.58,74.33z M219.65,82.09
		c0.04-1.6,1.31-3,2.84-3.14l243.24-21.05c2.31-0.2,4.19,1.23,4.19,3.21l-0.08,163.2c0,2.04-1.91,3.61-4.26,3.51l-246.7-10.67
		c-1.54-0.07-2.76-1.45-2.71-3.1L219.65,82.09z"/>
	<g>
		<path class="st10" d="M368.94,89.61c-0.03,2.68-2.4,4.99-5.28,5.18c-2.87,0.18-5.15-1.82-5.12-4.48c0.03-2.65,2.37-4.96,5.23-5.17
			C366.65,84.93,368.97,86.93,368.94,89.61z"/>
		<path class="st11" d="M368.74,107.33c-0.03,2.69-2.4,4.98-5.29,5.12c-2.87,0.14-5.16-1.91-5.13-4.57
			c0.03-2.66,2.37-4.95,5.24-5.11C366.45,102.6,368.77,104.64,368.74,107.33z"/>
		<path class="st10" d="M368.55,125.11c-0.03,2.7-2.41,4.96-5.3,5.06c-2.88,0.1-5.17-1.99-5.14-4.66c0.03-2.67,2.38-4.93,5.25-5.05
			C366.25,120.34,368.58,122.42,368.55,125.11z"/>
		<path class="st10" d="M368.35,142.97c-0.03,2.71-2.41,4.94-5.31,5c-2.88,0.06-5.18-2.07-5.15-4.76c0.03-2.68,2.38-4.92,5.26-4.99
			C366.05,138.14,368.38,140.26,368.35,142.97z"/>
		<path class="st12" d="M368.16,160.88c-0.03,2.72-2.41,4.93-5.31,4.94c-2.89,0.01-5.19-2.16-5.16-4.85
			c0.03-2.69,2.39-4.9,5.27-4.94C365.85,156,368.19,158.17,368.16,160.88z"/>
		<path class="st11" d="M367.96,178.87c-0.03,2.73-2.42,4.91-5.32,4.88c-2.89-0.03-5.2-2.25-5.16-4.95c0.03-2.7,2.39-4.88,5.28-4.88
			C365.65,173.93,367.99,176.14,367.96,178.87z"/>
		<path class="st12" d="M367.76,196.92c-0.03,2.74-2.42,4.89-5.33,4.82c-2.9-0.07-5.21-2.33-5.17-5.04
			c0.03-2.71,2.39-4.87,5.29-4.82C365.45,191.93,367.79,194.19,367.76,196.92z"/>
		<path class="st10" d="M367.56,215.04c-0.03,2.75-2.43,4.88-5.34,4.76c-2.9-0.12-5.21-2.42-5.18-5.14c0.03-2.72,2.4-4.85,5.3-4.76
			C365.25,209.99,367.59,212.29,367.56,215.04z"/>
	</g>
	<polygon class="st13" points="400.03,92.4 386.37,93.26 386.46,83.41 400.1,82.44 	"/>
	<polygon class="st14" points="412.67,128.41 386.04,129.31 386.13,119.39 412.74,118.27 	"/>
	<polygon class="st13" points="393.24,147.3 385.87,147.44 385.96,137.48 393.32,137.28 	"/>
	<polygon class="st14" points="413.1,165.51 385.7,165.64 385.79,155.64 413.17,155.29 	"/>
	<polygon class="st13" points="406.01,184.11 385.54,183.9 385.63,173.86 406.08,173.91 	"/>
	<polygon class="st13" points="406.21,202.76 385.37,202.23 385.46,192.16 406.28,192.51 	"/>
	<polygon class="st13" points="399.03,221.19 385.2,220.64 385.29,210.52 399.11,210.96 	"/>
	<polygon class="st13" points="461.57,88.49 428.68,90.58 428.73,80.39 461.58,78.05 	"/>
	<polygon class="st15" points="461.54,107.58 428.59,109.19 428.64,98.96 461.55,97.09 	"/>
	<polygon class="st15" points="461.52,126.74 428.5,127.87 428.55,117.6 461.53,116.21 	"/>
	<polygon class="st15" points="461.49,145.98 428.41,146.62 428.46,136.31 461.5,135.4 	"/>
	<polygon class="st15" points="461.46,165.29 428.33,165.44 428.37,155.1 461.48,154.68 	"/>
	<polygon class="st15" points="461.44,184.68 428.24,184.34 428.28,173.95 461.45,174.03 	"/>
	<polygon class="st13" points="461.41,204.15 428.14,203.31 428.19,192.89 461.43,193.45 	"/>
	<polygon class="st13" points="461.38,223.7 428.05,222.36 428.1,211.89 461.4,212.96 	"/>
	<g>
		<path class="st16" d="M276.92,204.21l-141.66-4.17c-3.2-0.09-5.67-3.16-5.54-6.84l2.83-79.83c0.13-3.62,2.79-6.72,5.97-6.93
			l140.57-9.27c4.18-0.28,7.52,2.89,7.44,7.08l-1.8,92.45C284.64,200.97,281.13,204.33,276.92,204.21z"/>
		<polygon class="st15" points="163.91,137.24 285.97,133.12 286.28,117.12 164.36,122.95 		"/>
		<path class="st17" d="M166.66,104.58l-28.13,1.86c-3.18,0.21-5.84,3.31-5.97,6.93l-2.83,79.83c-0.13,3.68,2.34,6.75,5.54,6.84
			l28.32,0.83L166.66,104.58z"/>
		<path class="st18" d="M286.23,119.78l0.3-15.54c0.08-4.19-3.26-7.36-7.44-7.08l-140.57,9.27c-3.18,0.21-5.84,3.31-5.97,6.93
			l-0.48,13.43L286.23,119.78z"/>
		<polygon class="st19" points="274.94,204.15 212.55,202.32 214.15,142.55 276.24,140.86 		"/>
		<g>
			<g>
				<polygon class="st18" points="156.81,140.4 138.82,140.96 138.91,138.46 156.9,137.86 				"/>
			</g>
			<g>
				<polygon class="st18" points="152.61,148.65 138.55,148.97 138.63,146.47 152.7,146.11 				"/>
			</g>
			<g>
				<polygon class="st18" points="156.28,156.74 138.27,157 138.35,154.49 156.36,154.19 				"/>
			</g>
			<g>
				<polygon class="st18" points="155.06,164.93 144.6,165 144.68,162.47 155.14,162.38 				"/>
			</g>
			<g>
				<polygon class="st18" points="157.25,173.13 144.32,173.11 144.41,170.58 157.33,170.57 				"/>
			</g>
			<g>
				<polygon class="st18" points="155.15,181.35 144.05,181.23 144.13,178.69 155.24,178.78 				"/>
			</g>
		</g>
		<g>
			<g>
				<polygon class="st18" points="205.44,147.33 174.24,148.04 174.32,145.45 205.52,144.66 				"/>
			</g>
			<g>
				<polygon class="st18" points="205.2,155.91 173.98,156.36 174.06,153.76 205.28,153.23 				"/>
			</g>
			<g>
				<polygon class="st18" points="195.14,164.56 173.72,164.7 173.8,162.09 195.21,161.9 				"/>
			</g>
		</g>
		<g>
			<polygon class="st20" points="272.2,151.49 218.03,152.44 218.18,146.59 272.33,145.33 			"/>
			<polygon class="st20" points="271.91,165.76 217.67,166.03 217.82,160.15 272.03,159.59 			"/>
			<polygon class="st4" points="272.1,180.08 216.82,179.64 216.98,173.75 272.23,173.89 			"/>
			<polygon class="st20" points="271.46,186.92 217.13,186.15 217.29,180.25 271.59,180.72 			"/>
		</g>
	</g>
	<g>
		<polygon class="st21" points="165.58,85.74 175.84,73.11 174.86,104.72 178.38,104.49 179.35,72.77 189.15,83.74 191.87,80.86 
			177.84,65.25 163.16,83.36 		"/>
		<g>
			<path class="st21" d="M174.86,104.72l3.51-0.23l-0.05,1.71l-3.51,0.22L174.86,104.72z M174.65,111.57l3.52-0.21l-0.12,3.88
				l-3.52,0.19L174.65,111.57z M174.37,120.59l3.52-0.18l-0.12,3.88l-3.52,0.16L174.37,120.59z M174.09,129.63l3.52-0.14l-0.12,3.89
				l-3.52,0.13L174.09,129.63z"/>
		</g>
	</g>
</g>
</svg>
